STARTFONT 2.1
COMMENT converted Oberon font (using FontToBDF by R.Crelier 10.1.91)
FONT Times16i.Scn.Fnt
SIZE 16 75 75
FONTBOUNDINGBOX  16 19 0 -4
STARTPROPERTIES 3
FONT_ASCENT 15
FONT_DESCENT 4
DEFAULT_CHAR 0
ENDPROPERTIES
CHARS 121
STARTCHAR c0
ENCODING -1 0
SWIDTH 0 0
DWIDTH 0 0
BBX 0 0 0 0
BITMAP
ENDCHAR
STARTCHAR c9
ENCODING -1 9
SWIDTH 774 0
DWIDTH 24 0
BBX 0 0 0 0
BITMAP
ENDCHAR
STARTCHAR c32
ENCODING -1 32
SWIDTH 193 0
DWIDTH 6 0
BBX 0 0 0 0
BITMAP
ENDCHAR
STARTCHAR c33
ENCODING -1 33
SWIDTH 193 0
DWIDTH 6 0
BBX 4 12 2 0
BITMAP
30
30
20
20
60
40
40
40
00
00
C0
C0
ENDCHAR
STARTCHAR c34
ENCODING -1 34
SWIDTH 193 0
DWIDTH 6 0
BBX 5 4 1 8
BITMAP
D8
48
48
90
ENDCHAR
STARTCHAR c35
ENCODING -1 35
SWIDTH 290 0
DWIDTH 9 0
BBX 8 12 0 0
BITMAP
09
09
12
7F
7F
24
24
FE
FE
48
90
90
ENDCHAR
STARTCHAR c36
ENCODING -1 36
SWIDTH 322 0
DWIDTH 10 0
BBX 10 16 0 -2
BITMAP
0200
0200
1FC0
34C0
6480
6480
7400
3C00
0F00
0B80
4980
4980
CB00
FE00
1000
1000
ENDCHAR
STARTCHAR c37
ENCODING -1 37
SWIDTH 354 0
DWIDTH 11 0
BBX 11 13 0 0
BITMAP
3040
4840
4880
8900
9100
9200
64C0
0920
0920
1220
2240
4240
4180
ENDCHAR
STARTCHAR c38
ENCODING -1 38
SWIDTH 354 0
DWIDTH 11 0
BBX 9 12 1 0
BITMAP
0700
0900
0900
0A00
1C00
2980
6C80
CC80
C500
C600
CE80
7300
ENDCHAR
STARTCHAR c39
ENCODING -1 39
SWIDTH 96 0
DWIDTH 3 0
BBX 2 4 1 8
BITMAP
C0
40
40
80
ENDCHAR
STARTCHAR c40
ENCODING -1 40
SWIDTH 225 0
DWIDTH 7 0
BBX 7 17 0 -4
BITMAP
02
04
08
10
30
20
60
40
C0
C0
C0
C0
C0
40
60
20
10
ENDCHAR
STARTCHAR c41
ENCODING -1 41
SWIDTH 225 0
DWIDTH 7 0
BBX 7 17 0 -4
BITMAP
10
08
0C
04
06
06
06
06
06
04
0C
08
18
10
20
40
80
ENDCHAR
STARTCHAR c42
ENCODING -1 42
SWIDTH 290 0
DWIDTH 9 0
BBX 9 9 0 0
BITMAP
0600
4400
6480
1B80
1C00
EC00
9300
1100
3000
ENDCHAR
STARTCHAR c43
ENCODING -1 43
SWIDTH 290 0
DWIDTH 9 0
BBX 9 9 0 0
BITMAP
0400
0400
0400
0800
FF80
0800
1000
1000
1000
ENDCHAR
STARTCHAR c44
ENCODING -1 44
SWIDTH 129 0
DWIDTH 4 0
BBX 3 5 0 -3
BITMAP
60
60
20
40
80
ENDCHAR
STARTCHAR c45
ENCODING -1 45
SWIDTH 258 0
DWIDTH 8 0
BBX 7 1 0 4
BITMAP
FE
ENDCHAR
STARTCHAR c46
ENCODING -1 46
SWIDTH 129 0
DWIDTH 4 0
BBX 2 2 1 0
BITMAP
C0
C0
ENDCHAR
STARTCHAR c47
ENCODING -1 47
SWIDTH 258 0
DWIDTH 8 0
BBX 8 12 0 0
BITMAP
01
02
02
04
08
08
10
20
20
40
80
80
ENDCHAR
STARTCHAR c48
ENCODING -1 48
SWIDTH 258 0
DWIDTH 8 0
BBX 8 12 0 0
BITMAP
0E
13
23
63
63
43
C2
C6
C6
C4
C8
70
ENDCHAR
STARTCHAR c49
ENCODING -1 49
SWIDTH 258 0
DWIDTH 8 0
BBX 6 12 1 0
BITMAP
0C
3C
CC
08
18
18
18
10
30
30
30
F8
ENDCHAR
STARTCHAR c50
ENCODING -1 50
SWIDTH 258 0
DWIDTH 8 0
BBX 8 12 0 0
BITMAP
1E
27
03
03
06
06
08
18
20
42
FC
FC
ENDCHAR
STARTCHAR c51
ENCODING -1 51
SWIDTH 258 0
DWIDTH 8 0
BBX 8 12 0 0
BITMAP
1E
23
03
02
04
3C
0E
06
06
04
C8
F0
ENDCHAR
STARTCHAR c52
ENCODING -1 52
SWIDTH 258 0
DWIDTH 8 0
BBX 8 12 0 0
BITMAP
02
06
0A
12
24
24
4C
FF
FF
08
18
18
ENDCHAR
STARTCHAR c53
ENCODING -1 53
SWIDTH 258 0
DWIDTH 8 0
BBX 8 12 0 0
BITMAP
1F
1E
20
20
7C
0E
06
06
06
04
C8
F0
ENDCHAR
STARTCHAR c54
ENCODING -1 54
SWIDTH 258 0
DWIDTH 8 0
BBX 8 12 0 0
BITMAP
07
18
30
20
60
4E
D3
E3
C2
C2
C4
78
ENDCHAR
STARTCHAR c55
ENCODING -1 55
SWIDTH 258 0
DWIDTH 8 0
BBX 7 12 1 0
BITMAP
7E
FC
04
08
08
10
30
20
60
40
C0
80
ENDCHAR
STARTCHAR c56
ENCODING -1 56
SWIDTH 258 0
DWIDTH 8 0
BBX 8 12 0 0
BITMAP
0E
11
31
31
1A
18
0C
2C
46
86
84
78
ENDCHAR
STARTCHAR c57
ENCODING -1 57
SWIDTH 258 0
DWIDTH 8 0
BBX 8 12 0 0
BITMAP
1E
23
43
43
C7
CB
72
06
04
0C
18
E0
ENDCHAR
STARTCHAR c58
ENCODING -1 58
SWIDTH 129 0
DWIDTH 4 0
BBX 3 9 1 0
BITMAP
60
60
00
00
00
00
00
C0
C0
ENDCHAR
STARTCHAR c59
ENCODING -1 59
SWIDTH 129 0
DWIDTH 4 0
BBX 4 12 0 -3
BITMAP
30
30
00
00
00
00
00
60
60
20
40
80
ENDCHAR
STARTCHAR c60
ENCODING -1 60
SWIDTH 322 0
DWIDTH 10 0
BBX 10 9 0 0
BITMAP
00C0
0300
0C00
3000
C000
2000
1000
0C00
0300
ENDCHAR
STARTCHAR c61
ENCODING -1 61
SWIDTH 322 0
DWIDTH 10 0
BBX 9 4 0 3
BITMAP
7F80
0000
0000
FF00
ENDCHAR
STARTCHAR c62
ENCODING -1 62
SWIDTH 322 0
DWIDTH 10 0
BBX 10 9 0 0
BITMAP
3000
0C00
0200
0100
00C0
0300
0C00
3000
C000
ENDCHAR
STARTCHAR c63
ENCODING -1 63
SWIDTH 258 0
DWIDTH 8 0
BBX 6 12 2 0
BITMAP
78
8C
0C
18
10
20
40
40
00
00
C0
C0
ENDCHAR
STARTCHAR c64
ENCODING -1 64
SWIDTH 548 0
DWIDTH 17 0
BBX 15 14 1 -2
BITMAP
03F8
0C04
1006
21E2
4266
4462
C446
8CC4
CDC4
8E88
CCF0
4000
6000
1F80
ENDCHAR
STARTCHAR c65
ENCODING -1 65
SWIDTH 290 0
DWIDTH 9 0
BBX 8 12 0 0
BITMAP
03
03
07
0B
0B
13
22
3E
46
46
86
CF
ENDCHAR
STARTCHAR c66
ENCODING -1 66
SWIDTH 354 0
DWIDTH 11 0
BBX 10 12 0 0
BITMAP
3F80
18C0
18C0
10C0
3180
3E00
3180
2180
6180
6180
6300
FC00
ENDCHAR
STARTCHAR c67
ENCODING -1 67
SWIDTH 322 0
DWIDTH 10 0
BBX 9 12 1 0
BITMAP
0780
1900
3100
6000
6000
C000
C000
C000
C000
C000
C600
7800
ENDCHAR
STARTCHAR c68
ENCODING -1 68
SWIDTH 387 0
DWIDTH 12 0
BBX 11 12 0 0
BITMAP
3F80
18C0
1860
1060
3060
3060
3060
30C0
20C0
6180
6300
FC00
ENDCHAR
STARTCHAR c69
ENCODING -1 69
SWIDTH 322 0
DWIDTH 10 0
BBX 10 12 0 0
BITMAP
3FC0
1880
1880
1800
3100
3E00
3200
3000
6000
6080
6100
FF00
ENDCHAR
STARTCHAR c70
ENCODING -1 70
SWIDTH 322 0
DWIDTH 10 0
BBX 10 12 0 0
BITMAP
3FC0
1880
1880
1800
3080
3F00
3100
3000
6000
6000
6000
F000
ENDCHAR
STARTCHAR c71
ENCODING -1 71
SWIDTH 387 0
DWIDTH 12 0
BBX 10 12 1 0
BITMAP
07C0
1880
3080
6000
6000
C000
C3C0
C180
C180
C300
C300
7C00
ENDCHAR
STARTCHAR c72
ENCODING -1 72
SWIDTH 387 0
DWIDTH 12 0
BBX 12 12 0 0
BITMAP
3CF0
1860
1860
1860
30C0
3FC0
30C0
30C0
6180
6180
6180
F3C0
ENDCHAR
STARTCHAR c73
ENCODING -1 73
SWIDTH 193 0
DWIDTH 6 0
BBX 6 12 0 0
BITMAP
3C
18
18
18
30
30
30
30
60
60
60
F0
ENDCHAR
STARTCHAR c74
ENCODING -1 74
SWIDTH 225 0
DWIDTH 7 0
BBX 7 12 0 0
BITMAP
1E
0C
0C
08
18
18
18
10
30
30
A0
C0
ENDCHAR
STARTCHAR c75
ENCODING -1 75
SWIDTH 354 0
DWIDTH 11 0
BBX 11 12 0 0
BITMAP
3CE0
1840
1880
1100
3200
3400
3E00
3600
2600
6300
6300
F7C0
ENDCHAR
STARTCHAR c76
ENCODING -1 76
SWIDTH 290 0
DWIDTH 9 0
BBX 9 12 0 0
BITMAP
3C00
1800
1800
1800
3000
3000
3000
3000
6000
6080
6100
FF00
ENDCHAR
STARTCHAR c77
ENCODING -1 77
SWIDTH 483 0
DWIDTH 15 0
BBX 15 12 0 0
BITMAP
1E1E
0E1C
0E2C
162C
1648
1658
2698
2698
2710
4730
4630
E678
ENDCHAR
STARTCHAR c78
ENCODING -1 78
SWIDTH 354 0
DWIDTH 11 0
BBX 11 12 0 0
BITMAP
38E0
1840
1840
2C40
2C40
2C80
2680
4680
4680
4300
4300
E300
ENDCHAR
STARTCHAR c79
ENCODING -1 79
SWIDTH 419 0
DWIDTH 13 0
BBX 11 12 1 0
BITMAP
07C0
1860
3060
6060
6060
C060
C060
C0C0
C0C0
C180
C300
7C00
ENDCHAR
STARTCHAR c80
ENCODING -1 80
SWIDTH 322 0
DWIDTH 10 0
BBX 10 12 0 0
BITMAP
3F80
18C0
18C0
10C0
3180
3F00
3000
3000
2000
6000
6000
F000
ENDCHAR
STARTCHAR c81
ENCODING -1 81
SWIDTH 419 0
DWIDTH 13 0
BBX 11 16 1 -4
BITMAP
07C0
1860
3060
6060
6060
C060
C060
C0C0
C0C0
C180
C300
7C00
1000
7800
1E60
0780
ENDCHAR
STARTCHAR c82
ENCODING -1 82
SWIDTH 354 0
DWIDTH 11 0
BBX 10 12 0 0
BITMAP
3F80
18C0
18C0
10C0
3180
3E00
3600
3300
2300
6180
6180
F1C0
ENDCHAR
STARTCHAR c83
ENCODING -1 83
SWIDTH 290 0
DWIDTH 9 0
BBX 9 12 0 0
BITMAP
0780
1900
3100
3000
3800
1C00
1C00
0E00
0600
4600
4C00
F000
ENDCHAR
STARTCHAR c84
ENCODING -1 84
SWIDTH 290 0
DWIDTH 9 0
BBX 9 12 0 0
BITMAP
7F80
4C80
8C80
0C00
1800
1800
1800
1800
3000
3000
3000
7800
ENDCHAR
STARTCHAR c85
ENCODING -1 85
SWIDTH 354 0
DWIDTH 11 0
BBX 11 12 0 0
BITMAP
78E0
3040
3040
2080
6080
6080
6100
C100
C100
C200
C400
7800
ENDCHAR
STARTCHAR c86
ENCODING -1 86
SWIDTH 290 0
DWIDTH 9 0
BBX 8 12 1 0
BITMAP
F3
61
62
62
44
44
C8
D0
D0
E0
C0
C0
ENDCHAR
STARTCHAR c87
ENCODING -1 87
SWIDTH 483 0
DWIDTH 15 0
BBX 14 12 1 0
BITMAP
F3CC
6184
6388
6388
4510
4510
CB20
D340
D340
E380
C300
C300
ENDCHAR
STARTCHAR c88
ENCODING -1 88
SWIDTH 354 0
DWIDTH 11 0
BBX 11 12 0 0
BITMAP
1EE0
0C40
0C80
0D00
0E00
0C00
0600
0E00
1600
2600
4600
EF00
ENDCHAR
STARTCHAR c89
ENCODING -1 89
SWIDTH 290 0
DWIDTH 9 0
BBX 9 12 0 0
BITMAP
7B80
3100
3100
3200
3400
1800
3000
3000
3000
6000
6000
F000
ENDCHAR
STARTCHAR c90
ENCODING -1 90
SWIDTH 322 0
DWIDTH 10 0
BBX 10 12 0 0
BITMAP
3FC0
2180
4300
0300
0600
0C00
0C00
1800
3000
3080
6100
FF00
ENDCHAR
STARTCHAR c91
ENCODING -1 91
SWIDTH 225 0
DWIDTH 7 0
BBX 7 16 0 -3
BITMAP
1E
18
18
10
10
30
30
20
20
60
60
40
40
C0
C0
F0
ENDCHAR
STARTCHAR c92
ENCODING -1 92
SWIDTH 225 0
DWIDTH 7 0
BBX 2 12 2 0
BITMAP
80
80
80
80
80
80
40
40
40
40
40
40
ENDCHAR
STARTCHAR c93
ENCODING -1 93
SWIDTH 225 0
DWIDTH 7 0
BBX 7 16 0 -3
BITMAP
1E
06
06
04
04
0C
0C
08
08
18
18
10
10
30
30
F0
ENDCHAR
STARTCHAR c94
ENCODING -1 94
SWIDTH 290 0
DWIDTH 9 0
BBX 8 10 0 0
BITMAP
0C
16
6A
89
19
10
10
30
20
20
ENDCHAR
STARTCHAR c95
ENCODING -1 95
SWIDTH 322 0
DWIDTH 10 0
BBX 10 1 0 -1
BITMAP
FFC0
ENDCHAR
STARTCHAR c96
ENCODING -1 96
SWIDTH 290 0
DWIDTH 9 0
BBX 3 4 4 10
BITMAP
C0
40
20
20
ENDCHAR
STARTCHAR c97
ENCODING -1 97
SWIDTH 290 0
DWIDTH 9 0
BBX 9 9 0 0
BITMAP
0F00
1300
2300
6200
4600
C600
CC80
D700
E600
ENDCHAR
STARTCHAR c98
ENCODING -1 98
SWIDTH 290 0
DWIDTH 9 0
BBX 8 13 0 0
BITMAP
38
18
10
30
27
2B
33
63
62
46
C4
C8
F0
ENDCHAR
STARTCHAR c99
ENCODING -1 99
SWIDTH 225 0
DWIDTH 7 0
BBX 7 9 0 0
BITMAP
0E
36
60
40
C0
C0
C0
C8
70
ENDCHAR
STARTCHAR c100
ENCODING -1 100
SWIDTH 290 0
DWIDTH 9 0
BBX 9 13 0 0
BITMAP
0380
0180
0100
0300
0F00
1300
2300
6200
4600
C600
CC80
D700
E600
ENDCHAR
STARTCHAR c101
ENCODING -1 101
SWIDTH 258 0
DWIDTH 8 0
BBX 7 9 0 0
BITMAP
1E
26
46
7C
C0
C0
C0
C8
70
ENDCHAR
STARTCHAR c102
ENCODING -1 102
SWIDTH 161 0
DWIDTH 5 0
BBX 5 17 0 -4
BITMAP
18
30
30
30
F8
20
60
60
60
40
C0
C0
C0
80
80
80
80
ENDCHAR
STARTCHAR c103
ENCODING -1 103
SWIDTH 258 0
DWIDTH 8 0
BBX 8 13 0 -4
BITMAP
1F
22
66
66
44
38
20
70
3C
4E
86
8C
F0
ENDCHAR
STARTCHAR c104
ENCODING -1 104
SWIDTH 322 0
DWIDTH 10 0
BBX 9 13 0 0
BITMAP
3800
1800
1000
3000
3380
2580
2980
3100
6300
6200
4280
C700
C600
ENDCHAR
STARTCHAR c105
ENCODING -1 105
SWIDTH 161 0
DWIDTH 5 0
BBX 5 13 0 0
BITMAP
18
18
00
00
70
30
20
60
60
40
50
E0
C0
ENDCHAR
STARTCHAR c106
ENCODING -1 106
SWIDTH 161 0
DWIDTH 5 0
BBX 5 17 0 -4
BITMAP
18
18
00
00
70
30
20
60
60
60
40
C0
C0
C0
80
80
80
ENDCHAR
STARTCHAR c107
ENCODING -1 107
SWIDTH 290 0
DWIDTH 9 0
BBX 9 13 0 0
BITMAP
3800
1800
1000
3000
3380
3100
2200
6400
7800
6C00
4C00
CD00
C600
ENDCHAR
STARTCHAR c108
ENCODING -1 108
SWIDTH 161 0
DWIDTH 5 0
BBX 5 13 0 0
BITMAP
38
18
10
30
30
30
20
60
60
40
50
E0
C0
ENDCHAR
STARTCHAR c109
ENCODING -1 109
SWIDTH 483 0
DWIDTH 15 0
BBX 14 9 0 0
BITMAP
739C
35AC
294C
3188
6318
6310
4214
C638
C630
ENDCHAR
STARTCHAR c110
ENCODING -1 110
SWIDTH 322 0
DWIDTH 10 0
BBX 9 9 0 0
BITMAP
7380
3580
2980
3100
6300
6200
4280
C700
C600
ENDCHAR
STARTCHAR c111
ENCODING -1 111
SWIDTH 290 0
DWIDTH 9 0
BBX 8 9 0 0
BITMAP
0E
13
23
63
42
C6
C4
C8
70
ENDCHAR
STARTCHAR c112
ENCODING -1 112
SWIDTH 290 0
DWIDTH 9 0
BBX 8 13 0 -4
BITMAP
E7
6B
53
63
42
C6
C4
88
F0
C0
80
80
C0
ENDCHAR
STARTCHAR c113
ENCODING -1 113
SWIDTH 290 0
DWIDTH 9 0
BBX 8 13 0 -4
BITMAP
0F
13
23
62
46
C6
CC
D4
E4
0C
08
18
3C
ENDCHAR
STARTCHAR c114
ENCODING -1 114
SWIDTH 193 0
DWIDTH 6 0
BBX 6 9 0 0
BITMAP
6C
2C
28
70
60
60
40
C0
C0
ENDCHAR
STARTCHAR c115
ENCODING -1 115
SWIDTH 225 0
DWIDTH 7 0
BBX 7 9 0 0
BITMAP
1E
22
60
30
38
18
0C
88
F0
ENDCHAR
STARTCHAR c116
ENCODING -1 116
SWIDTH 161 0
DWIDTH 5 0
BBX 5 12 0 0
BITMAP
10
10
10
78
30
20
60
60
40
D0
E0
C0
ENDCHAR
STARTCHAR c117
ENCODING -1 117
SWIDTH 322 0
DWIDTH 10 0
BBX 9 9 0 0
BITMAP
3180
7180
A100
2300
6300
4600
CA80
D700
E600
ENDCHAR
STARTCHAR c118
ENCODING -1 118
SWIDTH 225 0
DWIDTH 7 0
BBX 7 9 0 0
BITMAP
EE
66
62
64
44
48
50
60
40
ENDCHAR
STARTCHAR c119
ENCODING -1 119
SWIDTH 354 0
DWIDTH 11 0
BBX 11 9 0 0
BITMAP
EEE0
6660
6620
6640
4440
4C80
5500
6600
4400
ENDCHAR
STARTCHAR c120
ENCODING -1 120
SWIDTH 258 0
DWIDTH 8 0
BBX 8 9 0 0
BITMAP
33
73
94
18
18
18
29
CE
CC
ENDCHAR
STARTCHAR c121
ENCODING -1 121
SWIDTH 225 0
DWIDTH 7 0
BBX 7 13 0 -4
BITMAP
EE
66
62
64
44
48
50
60
40
40
80
80
80
ENDCHAR
STARTCHAR c122
ENCODING -1 122
SWIDTH 225 0
DWIDTH 7 0
BBX 7 9 0 0
BITMAP
3E
3C
48
08
10
20
24
78
F8
ENDCHAR
STARTCHAR c123
ENCODING -1 123
SWIDTH 225 0
DWIDTH 7 0
BBX 7 16 0 -3
BITMAP
0E
08
18
18
10
30
20
C0
20
20
60
40
C0
C0
80
E0
ENDCHAR
STARTCHAR c124
ENCODING -1 124
SWIDTH 290 0
DWIDTH 9 0
BBX 7 16 1 -3
BITMAP
06
04
04
0C
08
08
18
10
10
30
20
20
60
40
40
C0
ENDCHAR
STARTCHAR c125
ENCODING -1 125
SWIDTH 225 0
DWIDTH 7 0
BBX 7 16 0 -3
BITMAP
0E
02
06
06
04
0C
08
08
06
08
18
10
30
30
20
E0
ENDCHAR
STARTCHAR c126
ENCODING -1 126
SWIDTH 290 0
DWIDTH 9 0
BBX 9 3 0 3
BITMAP
7080
8880
8700
ENDCHAR
STARTCHAR c128
ENCODING -1 128
SWIDTH 290 0
DWIDTH 9 0
BBX 9 15 0 0
BITMAP
0D80
0480
0000
0300
0300
0700
0B00
0B00
1300
2200
3E00
4600
4600
8600
CF00
ENDCHAR
STARTCHAR c129
ENCODING -1 129
SWIDTH 419 0
DWIDTH 13 0
BBX 12 15 1 0
BITMAP
0630
0210
0000
07C0
1860
3060
6060
6060
C060
C060
C0C0
C0C0
C180
C300
7C00
ENDCHAR
STARTCHAR c130
ENCODING -1 130
SWIDTH 354 0
DWIDTH 11 0
BBX 11 15 0 0
BITMAP
0CC0
0440
0000
78E0
3040
3040
2080
6080
6080
6100
C100
C100
C200
C400
7800
ENDCHAR
STARTCHAR c131
ENCODING -1 131
SWIDTH 290 0
DWIDTH 9 0
BBX 9 13 0 0
BITMAP
0D80
0480
0000
0000
0F00
1300
2300
6200
4600
C600
CC80
D700
E600
ENDCHAR
STARTCHAR c132
ENCODING -1 132
SWIDTH 290 0
DWIDTH 9 0
BBX 9 13 0 0
BITMAP
0D80
0480
0000
0000
0E00
1300
2300
6300
4200
C600
C400
C800
7000
ENDCHAR
STARTCHAR c133
ENCODING -1 133
SWIDTH 322 0
DWIDTH 10 0
BBX 9 13 0 0
BITMAP
1980
0880
0000
0000
3180
7180
A100
2300
6300
4600
CA80
D700
E600
ENDCHAR
STARTCHAR c134
ENCODING -1 134
SWIDTH 290 0
DWIDTH 9 0
BBX 9 14 0 0
BITMAP
0180
0680
0880
0000
0000
0F00
1300
2300
6200
4600
C600
CC80
D700
E600
ENDCHAR
STARTCHAR c135
ENCODING -1 135
SWIDTH 258 0
DWIDTH 8 0
BBX 8 14 0 0
BITMAP
03
0D
11
00
00
1E
26
46
7C
C0
C0
C0
C8
70
ENDCHAR
STARTCHAR c136
ENCODING -1 136
SWIDTH 161 0
DWIDTH 5 0
BBX 5 14 0 0
BITMAP
18
68
88
00
00
70
30
20
60
60
40
50
E0
C0
ENDCHAR
STARTCHAR c137
ENCODING -1 137
SWIDTH 290 0
DWIDTH 9 0
BBX 9 14 0 0
BITMAP
0180
0680
0880
0000
0000
0E00
1300
2300
6300
4200
C600
C400
C800
7000
ENDCHAR
STARTCHAR c138
ENCODING -1 138
SWIDTH 322 0
DWIDTH 10 0
BBX 9 14 0 0
BITMAP
0180
0680
0880
0000
0000
3180
7180
A100
2300
6300
4600
CA80
D700
E600
ENDCHAR
STARTCHAR c139
ENCODING -1 139
SWIDTH 290 0
DWIDTH 9 0
BBX 9 14 0 0
BITMAP
0C00
0400
0200
0200
0000
0F00
1300
2300
6200
4600
C600
CC80
D700
E600
ENDCHAR
STARTCHAR c140
ENCODING -1 140
SWIDTH 258 0
DWIDTH 8 0
BBX 7 14 0 0
BITMAP
0C
04
02
02
00
1E
26
46
7C
C0
C0
C0
C8
70
ENDCHAR
STARTCHAR c141
ENCODING -1 141
SWIDTH 161 0
DWIDTH 5 0
BBX 4 14 0 0
BITMAP
60
20
10
10
00
70
30
20
60
60
40
50
E0
C0
ENDCHAR
STARTCHAR c142
ENCODING -1 142
SWIDTH 290 0
DWIDTH 9 0
BBX 8 14 0 0
BITMAP
0C
04
02
02
00
0E
13
23
63
42
C6
C4
C8
70
ENDCHAR
STARTCHAR c143
ENCODING -1 143
SWIDTH 322 0
DWIDTH 10 0
BBX 9 14 0 0
BITMAP
0C00
0400
0200
0200
0000
3180
7180
A100
2300
6300
4600
CA80
F700
C600
ENDCHAR
STARTCHAR c144
ENCODING -1 144
SWIDTH 258 0
DWIDTH 8 0
BBX 8 13 0 0
BITMAP
03
02
04
00
1E
26
46
7C
C0
C0
C0
C8
70
ENDCHAR
STARTCHAR c145
ENCODING -1 145
SWIDTH 258 0
DWIDTH 8 0
BBX 8 13 0 0
BITMAP
1B
09
00
00
1E
26
46
7C
C0
C0
C0
C8
70
ENDCHAR
STARTCHAR c146
ENCODING -1 146
SWIDTH 161 0
DWIDTH 5 0
BBX 5 13 0 0
BITMAP
28
28
00
00
70
30
20
60
60
40
50
E0
C0
ENDCHAR
STARTCHAR c147
ENCODING -1 147
SWIDTH 225 0
DWIDTH 7 0
BBX 7 13 0 -4
BITMAP
0E
36
60
40
C0
C0
C0
C8
70
00
60
20
40
ENDCHAR
STARTCHAR c148
ENCODING -1 148
SWIDTH 290 0
DWIDTH 9 0
BBX 9 13 0 0
BITMAP
0180
0100
0200
0000
0F00
1300
2300
6200
4600
C600
CC80
D700
E600
ENDCHAR
STARTCHAR c149
ENCODING -1 149
SWIDTH 322 0
DWIDTH 10 0
BBX 10 14 0 0
BITMAP
0640
0A80
1300
0000
0000
7380
3580
2980
3100
6300
6200
4280
C700
C600
ENDCHAR
STARTCHAR c155
ENCODING -1 155
SWIDTH 387 0
DWIDTH 12 0
BBX 12 1 0 4
BITMAP
FFF0
ENDCHAR
STARTCHAR c159
ENCODING -1 159
SWIDTH 258 0
DWIDTH 8 0
BBX 0 0 0 0
BITMAP
ENDCHAR
ENDFONT
